# xmcd CD database file
#
# Track frame offsets:
#	150
#	14785
#	41443
#	63113
#	84410
#	100559
#	113896
#	127684
#	154464
#	173319
#	191616
#	222333
#	243175
#	264643
#	278375
#
# Disc length: 4068 seconds
#
# Revision: 0
# Processed by: cddbd v1.5.1PL2 Copyright (c) Steve Scherf et al.
# Submitted via: CDex 1.51
#
DISCID=ba0fe20f
DTITLE=The Dave Sheperd and Dave Walker Quintet - I Saw Stars
DYEAR=2004
DGENRE=Jazz
TTITLE0=Puttin' On The Ritz
TTITLE1=If I Had You
TTITLE2=The Lonesome Road
TTITLE3=Softly, As In a Morning Sunrise
TTITLE4=Who?
TTITLE5=A Nightingale Sang In Berkeley Square
TTITLE6=The Varsity Drag
TTITLE7=Tin Roof Blues
TTITLE8=I Saw Stars
TTITLE9=All I Do Is Dream Of You
TTITLE10=Creole Love Call
TTITLE11=I Can't Believe That You're In Love With me
TTITLE12=Sentimental Journey
TTITLE13=Oh, Lady Be Good
TTITLE14=Spain
EXTD=YEAR: 2004
EXTT0=
EXTT1=
EXTT2=
EXTT3=
EXTT4=
EXTT5=
EXTT6=
EXTT7=
EXTT8=
EXTT9=
EXTT10=
EXTT11=
EXTT12=
EXTT13=
EXTT14=
PLAYORDER=
